<svg xmlns="http://www.w3.org/2000/svg" width="142.097" height="180.106" viewBox="0 0 142.097 180.106">
  <g id="jogging" transform="translate(0 0)">
    <path id="Path_1" data-name="Path 1" d="M278.138,112.584a15.6,15.6,0,0,0,.238-1.67H268.018l.271-1.38a15.715,15.715,0,0,0-6.1-15.727,15.717,15.717,0,0,0-14.765,12.136l-7.63,32.72h22.686l2.824-14.172h21.926a6.784,6.784,0,0,0,5.663-10.528H277.868Zm0,0" transform="translate(-155.444 -60.81)" fill="#9bef86"/>
    <path id="Path_2" data-name="Path 2" d="M215.345,101.578l-12.421,8.135a4.932,4.932,0,0,0-1.79,6.161l5.969,13.172" transform="translate(-130.096 -65.846)" fill="#9bef86"/>
    <path id="Path_3" data-name="Path 3" d="M162.239,309.328v19.195H135.27v15.126h35.236A13.191,13.191,0,0,0,183.7,330.458V309.328Zm0,0" transform="translate(-87.686 -200.516)" fill="#fccd9d"/>
    <path id="Path_4" data-name="Path 4" d="M290.493,300.355l4.392,13.437a30.455,30.455,0,0,1,1.507,9.463V354.52H279.918V329.779l-6.976-9.849V303.512Zm0,0" transform="translate(-176.929 -194.7)" fill="#fccd9d"/>
    <path id="Path_5" data-name="Path 5" d="M283.966,221.328l6.524,27.8-17.553,3.156,5.043-30.956Zm0,0" transform="translate(-176.927 -143.472)" fill="#4dbaf6"/>
    <g id="Group_1" data-name="Group 1" transform="translate(30.816 78.208)">
      <path id="Path_6" data-name="Path 6" d="M251.115,252.932l4.985-30.6H239.273v30.6Zm0,0" transform="translate(-185.92 -222.328)" fill="#72d8ff"/>
      <path id="Path_7" data-name="Path 7" d="M87.6,391.35h3a13.765,13.765,0,0,0,13.764-13.764v-15.8H95.3a7.7,7.7,0,0,0-7.7,7.7V391.35Zm0,0" transform="translate(-87.602 -312.726)" fill="#72d8ff"/>
      <path id="Path_8" data-name="Path 8" d="M319.539,471.1v-3a13.764,13.764,0,0,0-13.766-13.764h-15.8V463.4a7.7,7.7,0,0,0,7.7,7.7Zm0,0" transform="translate(-218.782 -372.723)" fill="#72d8ff"/>
    </g>
    <path id="Path_9" data-name="Path 9" d="M279.813,10.43A12.664,12.664,0,0,0,264.3,19.385l-.6,2.225a12.664,12.664,0,0,0,24.464,6.554l.6-2.223A12.665,12.665,0,0,0,279.813,10.43Zm0,0" transform="translate(-170.661 -6.479)" fill="#fccd9d"/>
    <path id="Path_10" data-name="Path 10" d="M182.1,67.2a10.306,10.306,0,1,0,0-20.613H166.949a19.289,19.289,0,0,0-4.643-13.469c.463-.213.922-.44,1.369-.7a16.077,16.077,0,0,0,7.54-9.825l.6-2.225A16.184,16.184,0,0,0,160.369.552h0A16.2,16.2,0,0,0,140.55,12l-.6,2.223A16.076,16.076,0,0,0,141.571,26.5c.154.267.316.526.484.782a19.392,19.392,0,0,0-8.871,5.8l-11.975,7.843a8.4,8.4,0,0,0-3.067,10.556L123.75,63.86l-3.077,13.2c0,.006,0,.008,0,.014a3.525,3.525,0,0,0-.091.786v30.956a3.5,3.5,0,0,0,.76,2.181v13.5H100.05a3.5,3.5,0,0,0-2.16-.743H88.825a11.233,11.233,0,0,0-11.22,11.219v21.869a3.518,3.518,0,0,0,3.518,3.518h3a17.312,17.312,0,0,0,16.907-13.7h32.093a16.734,16.734,0,0,0,15.885-11.533l.767,1.081v21.183a3.5,3.5,0,0,0-.987,2.439v9.065a11.233,11.233,0,0,0,11.219,11.22h21.869a3.518,3.518,0,0,0,3.518-3.518v-3a17.313,17.313,0,0,0-12.11-16.491V128.558A33.924,33.924,0,0,0,171.606,118l-4.346-13.294L160.944,77.8l2.112-10.6ZM146.75,16.04l.595-2.223a9.146,9.146,0,0,1,17.67,4.734l-.6,2.225a9.143,9.143,0,0,1-10.873,6.546q-.408-.13-.826-.24c-.037-.011-.076-.018-.113-.027A9.143,9.143,0,0,1,146.75,16.04Zm3.863,17.767q.388.124.783.231c.056.015.114.025.17.04a12.227,12.227,0,0,1,8.133,13.97l-.271,1.38a3.517,3.517,0,0,0,3.452,4.2H182.1a3.271,3.271,0,0,1,0,6.542H156.01a10.124,10.124,0,0,1-9.671-7.252,3.517,3.517,0,1,0-6.754,1.969,17.2,17.2,0,0,0,16.3,12.319l-1.422,7.138H128.531l7.335-31.453a12.146,12.146,0,0,1,2.354-4.86c.033-.038.066-.078.1-.118a12.211,12.211,0,0,1,12.3-4.1Zm14.306,86.38a26.885,26.885,0,0,1,1.333,8.37V156.3h-9.439V135.079a3.525,3.525,0,0,0-.647-2.034l-6.33-8.936V111.754l11.643-2.094Zm-37.3-14.892V81.374h19.607l-3.9,23.92Zm26.942-23.92,5.04,21.476-9.009,1.62,3.761-23.1Zm-30.009-32.8a1.407,1.407,0,0,1,.513-1.767l3.145-2.06-1.832,7.857ZM84.641,153.3V134.965a4.189,4.189,0,0,1,4.184-4.186h5.547v12.289A10.26,10.26,0,0,1,84.641,153.3Zm48.485-13.687H101.408v-8.091h23.452a3.517,3.517,0,0,0,3.518-3.518V112.33H142.8v17.612A9.684,9.684,0,0,1,133.126,139.615Zm45.223,33.455H160.01a4.189,4.189,0,0,1-4.184-4.184v-5.549h12.287A10.264,10.264,0,0,1,178.349,173.07Zm0,0" transform="translate(-50.306 0)"/>
    <path id="Path_11" data-name="Path 11" d="M157.2,492H114.162a3.518,3.518,0,0,0,0,7.035H157.2a3.518,3.518,0,0,0,0-7.035Zm0,0" transform="translate(-71.723 -318.93)"/>
    <path id="Path_12" data-name="Path 12" d="M79.58,492a3.519,3.519,0,1,0,2.487,1.031A3.546,3.546,0,0,0,79.58,492Zm0,0" transform="translate(-49.306 -318.93)"/>
    <path id="Path_13" data-name="Path 13" d="M40.19,218.363a3.519,3.519,0,1,0-2.487-1.031A3.553,3.553,0,0,0,40.19,218.363Zm0,0" transform="translate(-23.772 -136.989)"/>
    <path id="Path_14" data-name="Path 14" d="M51.1,270.846a3.517,3.517,0,0,0-3.518-3.518H3.518a3.518,3.518,0,1,0,0,7.035H47.584A3.517,3.517,0,0,0,51.1,270.846Zm0,0" transform="translate(0 -173.29)"/>
    <path id="Path_15" data-name="Path 15" d="M80.186,218.363h23.687a3.518,3.518,0,0,0,0-7.035H80.186a3.518,3.518,0,1,0,0,7.035Zm0,0" transform="translate(-49.699 -136.989)"/>
  </g>
</svg>
